<svg xmlns="http://www.w3.org/2000/svg" xml:space="preserve" id="Uploaded to svgrepo.com" width="800" height="800" version="1.1" viewBox="0 0 32 32"><style>.st0{fill:#c9483a}.st1{fill:#d97360}.st2{fill:#cce2cd}.st3{fill:#65c3ab}.st4{fill:#4c4842}.st5{fill:#edeae5}.st6{fill:#c9c6c0}.st7{fill:#edb57e}.st8{fill:#2eb39a}.st9{fill:#bcd269}.st10{fill:#d1de8b}.st11{fill:#ec9b5a}.st12{fill:#837f79}.st13{fill:#a5a29c}.st14{fill:#8e7866}.st15{fill:#725a48}.st16{fill:#f2c7b5}.st17{fill:#a4c83f}.st18{fill:#e3d4c0}</style><path d="M29 32H3a3 3 0 0 1-3-3V3a3 3 0 0 1 3-3h26a3 3 0 0 1 3 3v26a3 3 0 0 1-3 3z" style="fill:#f2c99e"/><path d="M27 32H3a3 3 0 0 1-3-3V3a3 3 0 0 1 3-3h24a3 3 0 0 1 3 3v26a3 3 0 0 1-3 3z" style="fill:#f9e0bd"/><path d="M28 3v17a1 1 0 0 1-1 1H3a1 1 0 0 1-1-1V3a1 1 0 0 1 1-1h24a1 1 0 0 1 1 1zm-1 21H16a1 1 0 0 0 0 2h11a1 1 0 0 0 0-2zm-14 0a1 1 0 1 0 0 2 1 1 0 0 0 0-2z" style="fill:#67625d"/><path d="M9.5 8h-3a.5.5 0 0 1 0-1h3a.5.5 0 0 1 0 1zm.5 1.5a.5.5 0 0 0-.5-.5h-3a.5.5 0 0 0 0 1h3a.5.5 0 0 0 .5-.5zm0 2a.5.5 0 0 0-.5-.5h-3a.5.5 0 0 0 0 1h3a.5.5 0 0 0 .5-.5zm0 2a.5.5 0 0 0-.5-.5h-3a.5.5 0 0 0 0 1h3a.5.5 0 0 0 .5-.5z" style="fill:#e69d8a"/><path d="M24.5 16h-17a.5.5 0 0 1 0-1h17a.5.5 0 0 1 0 1zM23 13.5a.5.5 0 0 0-.5-.5h-11a.5.5 0 0 0 0 1h11a.5.5 0 0 0 .5-.5z" style="fill:#98d3bc"/><path d="M6.5 6h-1a.5.5 0 0 1 0-1h1a.5.5 0 0 1 0 1zM25 7.5a.5.5 0 0 0-.5-.5h-13a.5.5 0 0 0 0 1h13a.5.5 0 0 0 .5-.5zm-2 2a.5.5 0 0 0-.5-.5h-11a.5.5 0 0 0 0 1h11a.5.5 0 0 0 .5-.5zm2 2a.5.5 0 0 0-.5-.5h-13a.5.5 0 0 0 0 1h13a.5.5 0 0 0 .5-.5zm-18 6a.5.5 0 0 0-.5-.5h-1a.5.5 0 0 0 0 1h1a.5.5 0 0 0 .5-.5z" style="fill:#fff2df"/></svg>